<svg width="85" height="84" viewBox="0 0 85 84" fill="none" xmlns="http://www.w3.org/2000/svg">
<path d="M41.9634 81.9999C0.48243 81.9999 25.371 39.7041 49.0745 33.1116" stroke="#454545" stroke-width="4" stroke-miterlimit="10" stroke-linecap="round" stroke-linejoin="round"/>
<path d="M20.9637 61.9262C20.9637 61.9262 41.0746 69.6298 52.0744 56.8152C60.9632 46.4449 65.4076 30.1488 63.9262 19.7786C55.0374 25.7044 38.8894 21.4822 25.4081 30.1488C10.5934 39.7043 16.5193 53.0374 16.5193 53.0374" stroke="#454545" stroke-width="4" stroke-miterlimit="10" stroke-linecap="round" stroke-linejoin="round"/>
<path d="M42.2968 82C64.3706 81.8519 82.1852 63.815 82 41.7042C81.8519 19.6303 63.815 1.85277 41.7042 2.00092C19.6303 2.14907 1.85277 20.1859 2.00092 42.2968C2.07499 52.1115 5.66754 61.0373 11.5564 67.9631" stroke="#454545" stroke-width="4" stroke-miterlimit="10" stroke-linecap="round" stroke-linejoin="round"/>
</svg>
