<svg width="83" height="82" viewBox="0 0 83 82" fill="none" xmlns="http://www.w3.org/2000/svg">
<path d="M58.1702 15.7874C58.1702 17.6597 57.4893 19.3618 56.1276 20.7235L41.1489 35.1916" stroke="#464646" stroke-width="4" stroke-miterlimit="10"/>
<path d="M41.1489 44.5532L61.0638 25.4894C63.4468 22.9362 64.9787 19.5319 64.9787 15.7872C64.9787 8.12766 59.0212 2 51.5319 2C47.4468 2 43.7021 3.87234 41.1489 6.93617C38.7659 3.87234 35.0212 2 30.9361 2C23.4468 2 17.3191 8.12766 17.3191 15.7872C17.3191 19.5319 18.851 23.1064 21.234 25.4894L41.1489 44.5532Z" stroke="#464646" stroke-width="4" stroke-miterlimit="10"/>
<path d="M26.1702 20.7232C24.9787 19.3615 24.1277 17.6594 24.1277 15.7871C24.1277 11.8722 27.1915 8.80835 30.9362 8.80835" stroke="#464646" stroke-width="4" stroke-miterlimit="10"/>
<path d="M71.7872 36.0424V19.0212C71.7872 15.2765 74.8511 12.2126 78.5957 12.2126H80.2979V51.3616C80.2979 54.085 79.2766 56.8084 77.234 58.8509L63.7872 72.6382C62.4255 74.3403 61.5745 76.3829 61.5745 78.5956V81.9999" stroke="#464646" stroke-width="4" stroke-miterlimit="10"/>
<path d="M41.1489 81.9999V72.468C41.1489 66.5105 43.5319 60.8935 47.7872 56.6382L56.6383 47.9573L63.7872 34.8509C64.4681 33.4892 65.8298 32.6382 67.5319 32.6382C69.9149 32.6382 71.7872 34.5105 71.7872 36.8935C71.7872 37.5744 71.617 38.2552 71.2766 38.9361L61.0638 57.6595" stroke="#464646" stroke-width="4" stroke-miterlimit="10"/>
<path d="M10.5106 36.0424V19.0212C10.5106 15.2765 7.44681 12.2126 3.70213 12.2126H2V51.3616C2 54.085 3.02128 56.8084 5.06383 58.8509L18.5106 72.6382C20.0426 74.1701 20.8936 76.3829 20.8936 78.5956V81.9999" stroke="#464646" stroke-width="4" stroke-miterlimit="10"/>
<path d="M41.1489 81.9999V72.468C41.1489 66.5105 38.7659 60.8935 34.5106 56.6382L25.8298 47.9573L18.6808 34.8509C17.8298 33.4892 16.4681 32.6382 14.7659 32.6382C12.5532 32.6382 10.5106 34.5105 10.5106 36.8935C10.5106 37.5744 10.6808 38.2552 11.0213 38.9361L21.234 57.6595" stroke="#464646" stroke-width="4" stroke-miterlimit="10"/>
</svg>
