<svg width="72" height="84" viewBox="0 0 72 84" fill="none" xmlns="http://www.w3.org/2000/svg">
<path d="M26.7273 31.5652L32.9091 36.7826L45.2727 24.6086" stroke="#515151" stroke-width="4" stroke-miterlimit="10" stroke-linecap="round" stroke-linejoin="round"/>
<path d="M44.0106 4.80435C46.1485 6.6087 49.0076 7.6087 52.0212 7.6087C58.2803 7.6087 63.3545 11.8913 63.3545 17.1739C63.3545 19.7174 64.5394 22.1522 66.6773 23.9348C71.1076 27.6739 71.1076 33.7174 66.6773 37.4565C64.5394 39.2609 63.3545 41.6739 63.3545 44.2174C63.3545 49.5 58.2803 53.7826 52.0212 53.7826C49.0076 53.7826 46.1227 54.7826 44.0106 56.587C39.5803 60.3261 32.4197 60.3261 27.9894 56.587C25.8515 54.7826 22.9924 53.7826 19.9788 53.7826C13.7197 53.7826 8.64545 49.5 8.64545 44.2174C8.64545 41.6739 7.46061 39.2391 5.32273 37.4565C0.892424 33.7174 0.892424 27.6739 5.32273 23.9348C7.46061 22.1304 8.64545 19.7174 8.64545 17.1739C8.64545 11.8913 13.7197 7.6087 19.9788 7.6087C22.9924 7.6087 25.8773 6.6087 27.9894 4.80435C32.4197 1.06522 39.5803 1.06522 44.0106 4.80435Z" stroke="#515151" stroke-width="4" stroke-miterlimit="10" stroke-linejoin="round"/>
<path d="M50.2439 53.9131L63.947 75.4131L53.0515 73L49.4454 82L38.2667 64.4783" stroke="#515151" stroke-width="4" stroke-miterlimit="10" stroke-linecap="round" stroke-linejoin="round"/>
<path d="M24.4349 54.5652L11.144 75.413L22.0394 73L25.6455 82L33.0894 70.3478" stroke="#515151" stroke-width="4" stroke-miterlimit="10" stroke-linecap="round" stroke-linejoin="round"/>
<path d="M36 47.2173C46.8113 47.2173 55.5757 39.8203 55.5757 30.6956C55.5757 21.5709 46.8113 14.1738 36 14.1738C25.1886 14.1738 16.4242 21.5709 16.4242 30.6956C16.4242 39.8203 25.1886 47.2173 36 47.2173Z" stroke="#515151" stroke-width="4" stroke-miterlimit="10" stroke-linejoin="round"/>
</svg>
