<svg width="104" height="84" viewBox="0 0 104 84" fill="none" xmlns="http://www.w3.org/2000/svg">
<path d="M20.1818 38.5715V31.7143C20.1818 29.2 27.6818 24.8572 33.8182 24.8572C39.9546 24.8572 47.4546 29.2 47.4546 31.7143V38.5715" stroke="#505050" stroke-width="4" stroke-miterlimit="10"/>
<path d="M33.8182 24.8572C39.2728 24.8572 42.9091 20.5143 42.9091 15.0286V11.8286C42.9091 6.34286 39.2728 2 33.8182 2C28.3637 2 24.7273 6.34286 24.7273 11.8286V15.0286C24.7273 20.5143 28.3637 24.8572 33.8182 24.8572Z" stroke="#505050" stroke-width="4" stroke-miterlimit="10"/>
<path d="M56.5455 38.5715V31.7143C56.5455 29.2 64.0455 24.8572 70.1818 24.8572C76.3182 24.8572 83.8182 29.2 83.8182 31.7143V38.5715" stroke="#505050" stroke-width="4" stroke-miterlimit="10"/>
<path d="M70.1819 24.8572C75.6364 24.8572 79.2728 20.5143 79.2728 15.0286V11.8286C79.2728 6.34286 75.6364 2 70.1819 2C64.7273 2 61.0909 6.34286 61.0909 11.8286V15.0286C61.0909 20.5143 64.7273 24.8572 70.1819 24.8572Z" stroke="#505050" stroke-width="4" stroke-miterlimit="10"/>
<path d="M40.6364 81.9998C39.2727 81.9998 38.3636 81.0855 38.3636 79.714V72.8569C38.3636 70.3426 45.8636 65.9998 52 65.9998C58.1364 65.9998 65.6364 70.3426 65.6364 72.8569V79.714C65.6364 81.0855 64.7273 81.9998 63.3636 81.9998H40.6364Z" stroke="#505050" stroke-width="4" stroke-miterlimit="10"/>
<path d="M52 66C57.4546 66 61.0909 61.6571 61.0909 56.1714V52.9714C61.0909 47.4857 57.4546 43.1428 52 43.1428C46.5455 43.1428 42.9091 47.4857 42.9091 52.9714V56.1714C42.9091 61.6571 46.5455 66 52 66Z" stroke="#505050" stroke-width="4" stroke-miterlimit="10"/>
<path d="M77 81.9998C75.6364 81.9998 74.7273 81.0855 74.7273 79.714V72.8569C74.7273 70.3426 82.2273 65.9998 88.3637 65.9998C94.5 65.9998 102 70.3426 102 72.8569V79.714C102 81.0855 101.091 81.9998 99.7273 81.9998H77Z" stroke="#505050" stroke-width="4" stroke-miterlimit="10"/>
<path d="M88.3636 66C93.8182 66 97.4545 61.6571 97.4545 56.1714V52.9714C97.4545 47.4857 93.8182 43.1428 88.3636 43.1428C82.9091 43.1428 79.2727 47.4857 79.2727 52.9714V56.1714C79.2727 61.6571 82.9091 66 88.3636 66Z" stroke="#505050" stroke-width="4" stroke-miterlimit="10"/>
<path d="M4.27273 81.9998C2.90909 81.9998 2 81.0855 2 79.714V72.8569C2 70.3426 9.5 65.9998 15.6364 65.9998C21.7727 65.9998 29.2727 70.3426 29.2727 72.8569V79.714C29.2727 81.0855 28.3636 81.9998 27 81.9998H4.27273Z" stroke="#505050" stroke-width="4" stroke-miterlimit="10"/>
<path d="M15.6364 66C21.0909 66 24.7273 61.6571 24.7273 56.1714V52.9714C24.7273 47.4857 21.0909 43.1428 15.6364 43.1428C10.1818 43.1428 6.54547 47.4857 6.54547 52.9714V56.1714C6.54547 61.6571 10.1818 66 15.6364 66Z" stroke="#505050" stroke-width="4" stroke-miterlimit="10"/>
</svg>
